<svg width="72" height="83" viewBox="0 0 72 83" fill="none" xmlns="http://www.w3.org/2000/svg">
<path d="M48.1924 35.463C47.8207 35.463 47.4545 35.2691 47.2552 34.9244C46.9589 34.4073 47.1367 33.7502 47.6538 33.4539L58.6852 27.1248C59.2023 26.8286 59.8594 27.0063 60.1557 27.5234C60.4519 28.0405 60.2742 28.6977 59.7571 28.9939L48.7257 35.323C48.5587 35.42 48.3702 35.4684 48.1924 35.4684V35.463Z" fill="white"/>
<path d="M35.5881 82.4436C35.2165 82.4436 34.8502 82.2497 34.6509 81.8996C34.3547 81.3825 34.5324 80.7253 35.0495 80.4291L68.9948 60.9787V21.8247C68.9948 21.2322 69.4742 20.7474 70.0721 20.7474C70.67 20.7474 71.1494 21.2322 71.1494 21.8247V61.4742C71.1548 61.5119 71.1601 61.555 71.1601 61.5981C71.1601 61.986 70.9608 62.3415 70.6269 62.5354L36.1268 82.3036C35.9598 82.4005 35.7713 82.449 35.5935 82.449L35.5881 82.4436Z" fill="white"/>
<path d="M35.5935 68.9397C35.001 68.9397 34.5162 68.4549 34.5162 67.8624L34.5324 56.5078C34.5324 55.9153 35.0172 55.4305 35.6097 55.4305C36.2022 55.4305 36.687 55.9153 36.687 56.5078L36.6708 67.8624C36.6708 68.4549 36.186 68.9397 35.5935 68.9397Z" fill="white"/>
<path d="M22.9731 35.3768C22.79 35.3768 22.6014 35.3283 22.4345 35.2314L11.3977 28.8377C10.8806 28.5414 10.7082 27.8789 11.0044 27.3672C11.3007 26.8501 11.9632 26.6777 12.4749 26.974L23.5117 33.3677C24.0288 33.6639 24.2012 34.3265 23.905 34.8382C23.7057 35.1829 23.3448 35.3768 22.9731 35.3768Z" fill="white"/>
<path d="M35.5828 82.4435C35.3996 82.4435 35.2165 82.395 35.0441 82.2981L0.538643 62.3036C0.204684 62.1097 0 61.7542 0 61.3718V21.6091C0 21.0166 0.479392 20.5319 1.07729 20.5319C1.67518 20.5319 2.15457 21.0166 2.15457 21.6091V60.7523L36.1214 80.4344C36.6385 80.7306 36.8109 81.3931 36.5146 81.9049C36.3153 82.2496 35.9544 82.4435 35.5828 82.4435Z" fill="white"/>
<path d="M70.083 22.9128C69.8999 22.9128 69.7114 22.8643 69.5444 22.7674L35.5775 3.08535L1.61609 22.5465C1.09899 22.8428 0.441853 22.665 0.145599 22.1479C-0.150655 21.6308 0.0270962 20.9737 0.544194 20.6774L35.0443 0.903845C35.3782 0.71532 35.7876 0.71532 36.1216 0.903845L70.6271 20.8983C71.1441 21.1945 71.3165 21.8571 71.0203 22.3688C70.821 22.7135 70.4601 22.9074 70.0884 22.9074L70.083 22.9128Z" fill="white"/>
<path d="M22.9731 35.3768C22.79 35.3768 22.6014 35.3283 22.4345 35.2314L11.3977 28.8377C10.8806 28.5414 10.7082 27.8789 11.0044 27.3672C11.3007 26.8501 11.9632 26.6777 12.4749 26.974L23.5117 33.3677C24.0288 33.6639 24.2012 34.3265 23.905 34.8382C23.7057 35.1829 23.3448 35.3768 22.9731 35.3768Z" fill="white"/>
<path d="M48.1978 35.4739C47.8261 35.4739 47.4598 35.28 47.2605 34.9353C46.9643 34.4182 47.142 33.761 47.6591 33.4648L58.6905 27.1357C59.2076 26.8395 59.8648 27.0172 60.161 27.5343C60.4573 28.0514 60.2795 28.7085 59.7624 29.0048L48.731 35.3339C48.564 35.4308 48.3755 35.4793 48.1978 35.4793V35.4739Z" fill="white"/>
</svg>
