<svg width="64" height="64" viewBox="0 0 64 64" fill="none" xmlns="http://www.w3.org/2000/svg">
<path d="M62.9875 39.4029L51.2104 32.3C50.8852 32.1035 50.5125 31.9997 50.1326 31.9997C49.7526 31.9997 49.3799 32.1035 49.0547 32.3L44.7038 34.925L36.6398 29.547L44.8531 24.5923C45.1611 24.4052 45.416 24.1422 45.5934 23.8285C45.7708 23.5148 45.8648 23.1608 45.8664 22.8004V9.20051C45.8657 8.83948 45.7722 8.48469 45.5949 8.17016C45.4177 7.85563 45.1626 7.59191 44.8542 7.40427L33.0771 0.300343C32.7519 0.103857 32.3792 0 31.9992 0C31.6193 0 31.2466 0.103857 30.9214 0.300343L19.1454 7.40427C18.8369 7.59191 18.5818 7.85563 18.4046 8.17016C18.2273 8.48469 18.1338 8.83948 18.1331 9.20051V22.8004C18.1338 23.1614 18.2273 23.5162 18.4046 23.8307C18.5818 24.1452 18.8369 24.409 19.1454 24.5966L27.3587 29.5512L19.2947 34.925L14.9427 32.3C14.6175 32.1035 14.2448 31.9997 13.8648 31.9997C13.4849 31.9997 13.1122 32.1035 12.787 32.3L1.01096 39.4039C0.702849 39.5918 0.448099 39.8557 0.271058 40.1702C0.0940183 40.4846 0.000607331 40.8393 -0.000244141 41.2002L-0.000244141 54.8C0.000740894 55.1612 0.0943138 55.516 0.271535 55.8307C0.448756 56.1453 0.703704 56.4093 1.01202 56.5973L12.7891 63.7002C13.1144 63.8963 13.4871 64 13.867 64C14.2468 64 14.6195 63.8963 14.9448 63.7002L26.7219 56.5963C27.03 56.4083 27.2847 56.1445 27.4618 55.83C27.6388 55.5156 27.7322 55.1609 27.7331 54.8V50.1334H36.2664V54.8C36.2674 55.1612 36.361 55.516 36.5382 55.8307C36.7154 56.1453 36.9704 56.4093 37.2787 56.5973L49.0558 63.7002C49.3811 63.8963 49.7537 64 50.1336 64C50.5135 64 50.8862 63.8963 51.2115 63.7002L62.9886 56.5963C63.2967 56.4083 63.5514 56.1445 63.7285 55.83C63.9055 55.5156 63.9989 55.1609 63.9998 54.8V41.2002C63.9988 40.839 63.9052 40.4842 63.728 40.1695C63.5508 39.8549 63.2958 39.5909 62.9875 39.4029ZM50.1096 34.1272L61.1646 40.7959L50.1203 47.4465L39.0984 40.7959L50.1096 34.1272ZM33.0664 29.2419V17.2954C33.0814 17.2868 33.0995 17.2836 33.1144 17.2751L43.7331 10.8645L43.7502 22.7694L33.0664 29.2419ZM31.9763 2.12752L43.0312 8.79625L31.987 15.4479L20.9651 8.79625L31.9763 2.12752ZM20.2494 10.856L30.8936 17.2804C30.9064 17.2879 30.9203 17.29 30.9331 17.2964V29.2174L20.2664 22.8004L20.2494 10.856ZM13.843 34.1272L24.8979 40.7959L13.8536 47.4465L2.83176 40.7959L13.843 34.1272ZM2.13309 54.8L2.11709 42.8535L12.7603 49.2801C12.7731 49.2875 12.787 49.2897 12.7998 49.2971V61.217L2.13309 54.8ZM14.9331 61.2416V49.295C14.948 49.2865 14.9662 49.2843 14.9811 49.2747L25.5998 42.8642L25.6168 54.7702L14.9331 61.2416ZM27.7331 48.0001V41.2002C27.7321 40.839 27.6385 40.4842 27.4613 40.1695C27.2841 39.8549 27.0291 39.5909 26.7208 39.4029L21.315 36.1432L29.379 30.7693L30.9224 31.7005C31.2477 31.8967 31.6204 32.0003 32.0003 32.0003C32.3802 32.0003 32.7528 31.8967 33.0782 31.7005L34.6206 30.7693L42.6846 36.1432L37.2776 39.4039C36.9695 39.5918 36.7148 39.8557 36.5377 40.1702C36.3607 40.4846 36.2673 40.8393 36.2664 41.2002V48.0001H27.7331ZM38.3998 54.8L38.3838 42.8535L49.027 49.2801C49.0398 49.2875 49.0536 49.2897 49.0664 49.2971V61.217L38.3998 54.8ZM51.1998 61.2416V49.295C51.2147 49.2865 51.2328 49.2843 51.2478 49.2747L61.8664 42.8642L61.8835 54.7702L51.1998 61.2416Z" fill="white"/>
</svg>
