<svg width="72" height="84" viewBox="0 0 72 84" fill="none" xmlns="http://www.w3.org/2000/svg">
<path d="M35.8306 23.0623H1.07736C0.592583 23.0623 0.161673 22.7337 0.0377848 22.2651C-0.0861031 21.7965 0.118577 21.2955 0.538719 21.0531L35.292 0.907885C35.6259 0.713973 36.0353 0.713973 36.3693 0.907885C36.7032 1.1018 36.9079 1.4573 36.9079 1.83974V21.985C36.9079 22.5775 36.4231 23.0623 35.8306 23.0623ZM5.08487 20.9077H34.7533V3.71422L5.08487 20.9077Z" fill="white"/>
<path d="M70.5569 23.0624H35.8306C35.2381 23.0624 34.7533 22.5776 34.7533 21.9851V1.85598C34.7533 1.46816 34.958 1.11265 35.2919 0.92412C35.6259 0.730209 36.0353 0.730209 36.3692 0.92412L71.0955 21.0532C71.5157 21.2956 71.7204 21.7965 71.5965 22.2652C71.4672 22.7338 71.0417 23.0624 70.5569 23.0624ZM36.9079 20.9078H66.5494L36.9079 3.72506V20.9078Z" fill="white"/>
<path d="M35.8306 83.4926C35.6474 83.4926 35.4589 83.4441 35.2919 83.3472L0.538643 63.2019C0.204684 63.008 0 62.6525 0 62.2701C0 61.8876 0.204684 61.5321 0.538643 61.3382L17.926 51.2764C18.1738 51.1309 18.4701 51.0932 18.7448 51.1686C19.0195 51.2441 19.2565 51.4218 19.3965 51.6696L36.7678 81.8713C37.0102 82.2914 36.9401 82.8247 36.5954 83.1694C36.3853 83.3741 36.1106 83.4818 35.8359 83.4818L35.8306 83.4926ZM3.22648 62.2755L32.8949 79.469L18.0661 53.6895L3.22648 62.2755Z" fill="white"/>
<path d="M1.07729 63.3475C0.894147 63.3475 0.705622 63.299 0.538643 63.202C0.204684 63.0081 0 62.6526 0 62.2702V21.9851C0 21.4949 0.328578 21.0694 0.797198 20.9455C1.26582 20.8162 1.76676 21.0263 2.00914 21.4464L19.3965 51.6751C19.6928 52.1922 19.515 52.8493 19.0033 53.1456L1.61593 63.2074C1.44895 63.3044 1.26042 63.3528 1.07729 63.3528V63.3475ZM2.15457 26.0195V60.4011L16.9942 51.8151L2.15457 26.0141V26.0195Z" fill="white"/>
<path d="M35.8306 83.4926C35.5505 83.4926 35.2758 83.3848 35.0711 83.1802C34.7263 82.8354 34.6563 82.3022 34.8987 81.882L52.2699 51.6803C52.41 51.4325 52.647 51.2494 52.9217 51.1794C53.1964 51.104 53.4927 51.1417 53.7404 51.2871L71.1224 61.349C71.4564 61.5429 71.6611 61.8984 71.6611 62.2808C71.6611 62.6633 71.4564 63.0188 71.1224 63.2127L36.3692 83.3579C36.2022 83.4549 36.0137 83.5034 35.8306 83.5034V83.4926ZM53.595 53.6841L38.7662 79.4635L68.4346 62.27L53.595 53.6841Z" fill="white"/>
<path d="M70.5731 23.0784C70.3899 23.0784 70.2122 23.03 70.0452 22.9384C69.5335 22.6421 69.3503 21.985 69.6412 21.4733V21.4625C69.889 21.037 70.3845 20.8269 70.8585 20.9508C71.3325 21.0747 71.6611 21.5056 71.6611 21.9904C71.6611 22.3728 71.4564 22.7391 71.1225 22.933C70.9501 23.03 70.7616 23.0838 70.5731 23.0838V23.0784Z" fill="white"/>
<path d="M70.5892 63.3474C70.4006 63.3474 70.2175 63.2989 70.0505 63.2019L52.6685 53.1401C52.1568 52.8438 51.9791 52.1867 52.2753 51.6696L69.6465 21.4679C69.7435 21.3009 69.8782 21.1662 70.0397 21.0693C70.3737 20.8754 70.7939 20.8754 71.1224 21.0693C71.4564 21.2632 71.6665 21.6133 71.6665 21.9957V62.2647C71.6665 62.6471 71.4618 63.008 71.1278 63.1965C70.9608 63.2935 70.7777 63.342 70.5892 63.342V63.3474ZM54.6723 51.815L69.5119 60.401V26.0194L54.6723 51.815Z" fill="white"/>
<path d="M70.5784 23.0785C70.2983 23.0785 70.0236 22.9708 69.8135 22.7661C69.4688 22.4213 69.3933 21.8935 69.6357 21.4679V21.4572C69.9374 20.9401 70.5999 20.7677 71.1116 21.064C71.4456 21.2579 71.6556 21.6134 71.6556 22.0012C71.6556 22.389 71.451 22.7445 71.117 22.9384C70.95 23.0354 70.7615 23.0839 70.573 23.0839L70.5784 23.0785Z" fill="white"/>
<path d="M70.573 23.0731C70.3845 23.0731 70.1906 23.0246 70.0236 22.9222C69.6088 22.6745 69.3988 22.1735 69.528 21.7049C69.6573 21.2363 70.0721 20.9077 70.5568 20.9077C71.0416 20.9077 71.4779 21.2309 71.6072 21.6995C71.7365 22.1681 71.5479 22.6637 71.1332 22.9115L71.117 22.9222C70.9447 23.0246 70.7561 23.0731 70.5676 23.0731H70.573Z" fill="white"/>
<path d="M35.8305 43.1752C35.642 43.1752 35.4588 43.1267 35.2919 43.0298L0.538597 22.9169C0.118455 22.6745 -0.0862252 22.1735 0.0376627 21.7049C0.161551 21.2363 0.592461 20.9077 1.07724 20.9077H70.5622C70.7507 20.9077 70.9393 20.9562 71.1009 21.0532H71.117C71.451 21.2524 71.6556 21.608 71.6556 21.9958C71.6556 22.3836 71.451 22.7391 71.117 22.9276L36.3745 43.0298C36.2075 43.1267 36.019 43.1752 35.8359 43.1752H35.8305ZM5.08475 23.0623L35.8305 40.8537L66.5709 23.0623H5.08475Z" fill="white"/>
<path d="M35.8305 83.4927C35.4535 83.4927 35.0926 83.2934 34.8987 82.954L0.145407 22.5237C-0.096982 22.1035 -0.0269708 21.5703 0.317761 21.2255C0.662492 20.8808 1.19575 20.8108 1.61589 21.0586L36.3692 41.1715C36.7031 41.3654 36.9078 41.7209 36.9078 42.1033V82.4208C36.9078 82.911 36.5792 83.3365 36.1106 83.4604C36.019 83.4873 35.9275 83.4981 35.8305 83.4981V83.4927ZM4.01286 24.9314L34.7532 78.381V42.7174L4.01286 24.926V24.9314Z" fill="white"/>
<path d="M35.8306 83.4926C35.739 83.4926 35.6474 83.4818 35.5505 83.4549C35.0765 83.331 34.7533 82.9001 34.7533 82.4153V42.1625C34.7533 41.7801 34.958 41.3761 35.2919 41.1822L70.0344 21.08C70.4546 20.8376 70.9878 20.9023 71.3326 21.247C71.6773 21.5918 71.7473 22.125 71.5049 22.5451L36.7624 82.9486C36.5685 83.2879 36.2076 83.4872 35.8306 83.4872V83.4926ZM36.9079 42.7335V78.3809L67.6374 24.9529L36.9079 42.7335Z" fill="white"/>
<path d="M70.573 23.0729C70.3899 23.0729 70.2067 23.0244 70.0451 22.9329H70.0397C69.7058 22.7389 69.5011 22.3834 69.5011 22.001C69.5011 21.6186 69.7004 21.2631 70.029 21.0692C70.4491 20.816 70.9931 20.8752 71.3379 21.22C71.688 21.5593 71.7688 22.0926 71.5318 22.5181C71.3917 22.7659 71.1494 22.9598 70.8746 23.0352C70.7777 23.0621 70.6807 23.0729 70.5784 23.0729H70.573Z" fill="white"/>
<path d="M35.8306 43.1914C35.6474 43.1914 35.4589 43.1429 35.2919 43.0459C34.958 42.852 34.7533 42.4965 34.7533 42.1141C34.7533 41.7316 34.958 41.36 35.2919 41.166L70.0344 21.0639C70.3684 20.87 70.7777 20.87 71.1117 21.0639C71.3595 21.2093 71.5426 21.4463 71.618 21.721C71.6934 21.9957 71.6557 22.292 71.5157 22.5398C71.4241 22.7014 71.2787 22.8522 71.1171 22.9438L36.3746 43.0459C36.2076 43.1429 36.0191 43.1914 35.836 43.1914H35.8306Z" fill="white"/>
</svg>
