<svg width="73" height="85" viewBox="0 0 73 85" fill="none" xmlns="http://www.w3.org/2000/svg">
<path d="M36.1268 84.1875C35.9437 84.1875 35.7605 84.139 35.5989 84.0474L0.538643 63.7244C0.204684 63.5305 0 63.175 0 62.7926C0 62.4102 0.204684 62.0546 0.538643 61.8607L35.4966 41.6293C35.5289 41.6078 35.5612 41.5862 35.5989 41.5647C35.9329 41.3707 36.3423 41.3654 36.6762 41.5593L71.7365 61.8446C72.0704 62.0385 72.2751 62.394 72.2751 62.7764C72.2751 63.1589 72.0704 63.5144 71.7365 63.7083L36.7786 83.9666C36.7462 83.9936 36.7085 84.0151 36.6762 84.0367C36.5038 84.1336 36.3153 84.1821 36.1268 84.1821V84.1875ZM3.23186 62.798L36.1268 81.8605L69.0487 62.7818L36.1537 43.7462L3.23186 62.798Z" fill="white"/>
<path d="M1.07729 63.8698C0.888761 63.8698 0.705622 63.8213 0.538643 63.7243C0.204684 63.5304 0 63.1749 0 62.7925V22.1572C0 21.7748 0.204684 21.4193 0.538643 21.2254L35.5989 0.907763C35.9329 0.713851 36.3423 0.713851 36.6762 0.907763C37.0102 1.10167 37.2149 1.45718 37.2149 1.83962V42.5072C37.2149 42.8896 37.0102 43.2451 36.6762 43.439L1.61593 63.7243C1.44895 63.8213 1.26042 63.8698 1.07729 63.8698ZM2.15457 22.7767V60.9234L35.0603 41.8823V3.70332L2.15457 22.7713V22.7767Z" fill="white"/>
<path d="M71.1925 63.8698C71.0039 63.8698 70.8208 63.8213 70.6538 63.7243L35.5935 43.439C35.2596 43.2451 35.0549 42.8896 35.0549 42.5072V1.83962C35.0549 1.45718 35.2596 1.09629 35.5935 0.907763C35.9275 0.713851 36.3369 0.713851 36.6708 0.907763L71.7311 21.2254C72.0651 21.4193 72.2698 21.7748 72.2698 22.1572V62.7925C72.2698 63.1749 72.0651 63.5358 71.7311 63.7243C71.5641 63.8213 71.381 63.8698 71.1925 63.8698ZM37.2095 41.8823L70.1152 60.9234V22.7767L37.2095 3.70871V41.8877V41.8823Z" fill="white"/>
<path d="M25.0954 49.9783C24.5029 49.9783 24.0181 49.4935 24.0181 48.901V8.35732C24.0181 7.76481 24.5029 7.28003 25.0954 7.28003C25.6879 7.28003 26.1727 7.76481 26.1727 8.35732V48.901C26.1727 49.4935 25.6879 49.9783 25.0954 49.9783Z" fill="white"/>
<path d="M12.9328 56.5174C12.3403 56.5174 11.8555 56.0326 11.8555 55.4401V15.866C11.8555 15.2735 12.3403 14.7887 12.9328 14.7887C13.5253 14.7887 14.0101 15.2735 14.0101 15.866V55.4401C14.0101 56.0326 13.5253 56.5174 12.9328 56.5174Z" fill="white"/>
<path d="M71.1332 37.5086C70.9501 37.5086 70.7616 37.4601 70.5892 37.3577L35.6474 16.7924C35.1357 16.4907 34.9633 15.8282 35.265 15.3165C35.5666 14.8047 36.2292 14.6324 36.7409 14.934L71.6827 35.4994C72.1944 35.8011 72.3667 36.4636 72.0651 36.9753C71.8658 37.3147 71.5049 37.5086 71.1332 37.5086Z" fill="white"/>
<path d="M71.1925 51.4164C71.0093 51.4164 70.8208 51.3679 70.6484 51.271L35.6474 30.781C35.1357 30.4794 34.9633 29.8222 35.2596 29.3051C35.5612 28.7934 36.2184 28.621 36.7355 28.9227L71.7365 49.4127C72.2482 49.7143 72.4206 50.3714 72.1243 50.8885C71.925 51.2333 71.5641 51.4218 71.1925 51.4218V51.4164Z" fill="white"/>
<path d="M11.8286 70.1021C11.4569 70.1021 11.096 69.9082 10.8968 69.5634C10.6005 69.0463 10.7729 68.3892 11.29 68.0929L46.0917 47.9692C46.6034 47.673 47.2659 47.8453 47.5622 48.3624C47.8584 48.8795 47.6861 49.5367 47.169 49.8329L12.3672 69.9566C12.2003 70.0536 12.0117 70.1021 11.8286 70.1021Z" fill="white"/>
<path d="M23.7542 77.0128C23.3825 77.0128 23.0162 76.8188 22.8169 76.4741C22.5207 75.957 22.6984 75.2999 23.2155 75.0036L58.2112 54.8584C58.7283 54.5621 59.3854 54.7399 59.6817 55.257C59.9779 55.7741 59.8002 56.4312 59.2831 56.7275L24.2874 76.8727C24.1204 76.9697 23.9319 77.0182 23.7488 77.0182L23.7542 77.0128Z" fill="white"/>
</svg>
